<svg id="visual" viewBox="0 0 3000 2000" width="3000" height="2000" xmlns="http://www.w3.org/2000/svg" xmlns:xlink="http://www.w3.org/1999/xlink" version="1.1"><rect x="0" y="0" width="3000" height="2000" fill="#001525"></rect><defs><linearGradient id="grad1_0" x1="33.3%" y1="0%" x2="100%" y2="100%"><stop offset="20%" stop-color="#001525" stop-opacity="1"></stop><stop offset="80%" stop-color="#001525" stop-opacity="1"></stop></linearGradient></defs><defs><linearGradient id="grad2_0" x1="0%" y1="0%" x2="66.7%" y2="100%"><stop offset="20%" stop-color="#001525" stop-opacity="1"></stop><stop offset="80%" stop-color="#001525" stop-opacity="1"></stop></linearGradient></defs><g transform="translate(3000, 0)"><path d="M0 1622.5C-161 1480.2 -322 1337.9 -530.8 1281.4C-739.5 1225 -996 1254.4 -1147.3 1147.3C-1298.5 1040.1 -1344.5 796.4 -1406.1 582.4C-1467.8 368.5 -1545.2 184.2 -1622.5 0L0 0Z" fill="#CA1551"></path></g><g transform="translate(0, 2000)"><path d="M0 -1622.5C184.2 -1536.9 368.5 -1451.4 574.8 -1387.7C781.1 -1323.9 1009.6 -1282 1147.3 -1147.3C1285 -1012.5 1331.9 -784.9 1396 -578.2C1460.1 -371.5 1541.3 -185.8 1622.5 0L0 0Z" fill="#CA1551"></path></g></svg>