<svg id="visual" viewBox="0 0 3000 2000" width="3000" height="2000" xmlns="http://www.w3.org/2000/svg" xmlns:xlink="http://www.w3.org/1999/xlink" version="1.1"><rect x="0" y="0" width="3000" height="2000" fill="#001829"></rect><g fill="none" stroke="#297EA6" stroke-width="4"><path d="M119.3 68.9L119.3 307.4L-119.3 307.4L-119.3 68.9L-325.9 -50.4L-206.6 -257L0 -137.7L206.6 -257L325.9 -50.4Z" transform="translate(110 1551)"></path><path d="M74.5 43L74.5 192L-74.5 192L-74.5 43L-203.5 -31.5L-129 -160.5L0 -86L129 -160.5L203.5 -31.5Z" transform="translate(123 403)"></path><path d="M101.5 58.6L101.5 261.5L-101.5 261.5L-101.5 58.6L-277.2 -42.9L-175.7 -218.6L0 -117.2L175.7 -218.6L277.2 -42.9Z" transform="translate(1600 371)"></path><path d="M109.6 63.3L109.6 282.4L-109.6 282.4L-109.6 63.3L-299.3 -46.3L-189.8 -236.1L0 -126.5L189.8 -236.1L299.3 -46.3Z" transform="translate(1764 1293)"></path><path d="M94.4 54.5L94.4 243.4L-94.4 243.4L-94.4 54.5L-258 -39.9L-163.6 -203.5L0 -109.1L163.6 -203.5L258 -39.9Z" transform="translate(2491 1923)"></path><path d="M101.7 58.7L101.7 262.2L-101.7 262.2L-101.7 58.7L-277.9 -43L-176.2 -219.2L0 -117.5L176.2 -219.2L277.9 -43Z" transform="translate(2636 902)"></path><path d="M88.2 50.9L88.2 227.4L-88.2 227.4L-88.2 50.9L-241.1 -37.3L-152.8 -190.1L0 -101.9L152.8 -190.1L241.1 -37.3Z" transform="translate(1056 1986)"></path><path d="M112.3 64.8L112.3 289.3L-112.3 289.3L-112.3 64.8L-306.7 -47.4L-194.4 -241.9L0 -129.6L194.4 -241.9L306.7 -47.4Z" transform="translate(2881 36)"></path><path d="M99.3 57.3L99.3 255.9L-99.3 255.9L-99.3 57.3L-271.3 -42L-172 -214L0 -114.7L172 -214L271.3 -42Z" transform="translate(874 914)"></path></g></svg>