<svg id="visual" viewBox="0 0 3000 2000" width="3000" height="2000" xmlns="http://www.w3.org/2000/svg" xmlns:xlink="http://www.w3.org/1999/xlink" version="1.1"><path d="M0 141L38.5 127.7C77 114.3 154 87.7 231 121C308 154.3 385 247.7 461.8 284.3C538.7 321 615.3 301 692.2 307.7C769 314.3 846 347.7 923 317.7C1000 287.7 1077 194.3 1154 151C1231 107.7 1308 114.3 1384.8 147.7C1461.7 181 1538.3 241 1615.2 251C1692 261 1769 221 1846 181C1923 141 2000 101 2077 127.7C2154 154.3 2231 247.7 2307.8 281C2384.7 314.3 2461.3 287.7 2538.2 261C2615 234.3 2692 207.7 2769 177.7C2846 147.7 2923 114.3 2961.5 97.7L3000 81L3000 0L2961.5 0C2923 0 2846 0 2769 0C2692 0 2615 0 2538.2 0C2461.3 0 2384.7 0 2307.8 0C2231 0 2154 0 2077 0C2000 0 1923 0 1846 0C1769 0 1692 0 1615.2 0C1538.3 0 1461.7 0 1384.8 0C1308 0 1231 0 1154 0C1077 0 1000 0 923 0C846 0 769 0 692.2 0C615.3 0 538.7 0 461.8 0C385 0 308 0 231 0C154 0 77 0 38.5 0L0 0Z" fill="#6198ff"></path><path d="M0 581L38.5 591C77 601 154 621 231 634.3C308 647.7 385 654.3 461.8 704.3C538.7 754.3 615.3 847.7 692.2 837.7C769 827.7 846 714.3 923 597.7C1000 481 1077 361 1154 431C1231 501 1308 761 1384.8 854.3C1461.7 947.7 1538.3 874.3 1615.2 844.3C1692 814.3 1769 827.7 1846 747.7C1923 667.7 2000 494.3 2077 481C2154 467.7 2231 614.3 2307.8 627.7C2384.7 641 2461.3 521 2538.2 454.3C2615 387.7 2692 374.3 2769 394.3C2846 414.3 2923 467.7 2961.5 494.3L3000 521L3000 79L2961.5 95.7C2923 112.3 2846 145.7 2769 175.7C2692 205.7 2615 232.3 2538.2 259C2461.3 285.7 2384.7 312.3 2307.8 279C2231 245.7 2154 152.3 2077 125.7C2000 99 1923 139 1846 179C1769 219 1692 259 1615.2 249C1538.3 239 1461.7 179 1384.8 145.7C1308 112.3 1231 105.7 1154 149C1077 192.3 1000 285.7 923 315.7C846 345.7 769 312.3 692.2 305.7C615.3 299 538.7 319 461.8 282.3C385 245.7 308 152.3 231 119C154 85.7 77 112.3 38.5 125.7L0 139Z" fill="#4988ff"></path><path d="M0 701L38.5 704.3C77 707.7 154 714.3 231 751C308 787.7 385 854.3 461.8 901C538.7 947.7 615.3 974.3 692.2 957.7C769 941 846 881 923 801C1000 721 1077 621 1154 691C1231 761 1308 1001 1384.8 1084.3C1461.7 1167.7 1538.3 1094.3 1615.2 1074.3C1692 1054.3 1769 1087.7 1846 994.3C1923 901 2000 681 2077 667.7C2154 654.3 2231 847.7 2307.8 847.7C2384.7 847.7 2461.3 654.3 2538.2 577.7C2615 501 2692 541 2769 577.7C2846 614.3 2923 647.7 2961.5 664.3L3000 681L3000 519L2961.5 492.3C2923 465.7 2846 412.3 2769 392.3C2692 372.3 2615 385.7 2538.2 452.3C2461.3 519 2384.7 639 2307.8 625.7C2231 612.3 2154 465.7 2077 479C2000 492.3 1923 665.7 1846 745.7C1769 825.7 1692 812.3 1615.2 842.3C1538.3 872.3 1461.7 945.7 1384.8 852.3C1308 759 1231 499 1154 429C1077 359 1000 479 923 595.7C846 712.3 769 825.7 692.2 835.7C615.3 845.7 538.7 752.3 461.8 702.3C385 652.3 308 645.7 231 632.3C154 619 77 599 38.5 589L0 579Z" fill="#2d77ff"></path><path d="M0 981L38.5 1001C77 1021 154 1061 231 1091C308 1121 385 1141 461.8 1174.3C538.7 1207.7 615.3 1254.3 692.2 1244.3C769 1234.3 846 1167.7 923 1091C1000 1014.3 1077 927.7 1154 967.7C1231 1007.7 1308 1174.3 1384.8 1251C1461.7 1327.7 1538.3 1314.3 1615.2 1341C1692 1367.7 1769 1434.3 1846 1367.7C1923 1301 2000 1101 2077 1064.3C2154 1027.7 2231 1154.3 2307.8 1154.3C2384.7 1154.3 2461.3 1027.7 2538.2 951C2615 874.3 2692 847.7 2769 887.7C2846 927.7 2923 1034.3 2961.5 1087.7L3000 1141L3000 679L2961.5 662.3C2923 645.7 2846 612.3 2769 575.7C2692 539 2615 499 2538.2 575.7C2461.3 652.3 2384.7 845.7 2307.8 845.7C2231 845.7 2154 652.3 2077 665.7C2000 679 1923 899 1846 992.3C1769 1085.7 1692 1052.3 1615.2 1072.3C1538.3 1092.3 1461.7 1165.7 1384.8 1082.3C1308 999 1231 759 1154 689C1077 619 1000 719 923 799C846 879 769 939 692.2 955.7C615.3 972.3 538.7 945.7 461.8 899C385 852.3 308 785.7 231 749C154 712.3 77 705.7 38.5 702.3L0 699Z" fill="#0066ff"></path><path d="M0 1101L38.5 1127.7C77 1154.3 154 1207.7 231 1247.7C308 1287.7 385 1314.3 461.8 1327.7C538.7 1341 615.3 1341 692.2 1337.7C769 1334.3 846 1327.7 923 1281C1000 1234.3 1077 1147.7 1154 1161C1231 1174.3 1308 1287.7 1384.8 1364.3C1461.7 1441 1538.3 1481 1615.2 1537.7C1692 1594.3 1769 1667.7 1846 1604.3C1923 1541 2000 1341 2077 1277.7C2154 1214.3 2231 1287.7 2307.8 1281C2384.7 1274.3 2461.3 1187.7 2538.2 1131C2615 1074.3 2692 1047.7 2769 1077.7C2846 1107.7 2923 1194.3 2961.5 1237.7L3000 1281L3000 1139L2961.5 1085.7C2923 1032.3 2846 925.7 2769 885.7C2692 845.7 2615 872.3 2538.2 949C2461.3 1025.7 2384.7 1152.3 2307.8 1152.3C2231 1152.3 2154 1025.7 2077 1062.3C2000 1099 1923 1299 1846 1365.7C1769 1432.3 1692 1365.7 1615.2 1339C1538.3 1312.3 1461.7 1325.7 1384.8 1249C1308 1172.3 1231 1005.7 1154 965.7C1077 925.7 1000 1012.3 923 1089C846 1165.7 769 1232.3 692.2 1242.3C615.3 1252.3 538.7 1205.7 461.8 1172.3C385 1139 308 1119 231 1089C154 1059 77 1019 38.5 999L0 979Z" fill="#005de8"></path><path d="M0 1381L38.5 1394.3C77 1407.7 154 1434.3 231 1471C308 1507.7 385 1554.3 461.8 1581C538.7 1607.7 615.3 1614.3 692.2 1587.7C769 1561 846 1501 923 1454.3C1000 1407.7 1077 1374.3 1154 1384.3C1231 1394.3 1308 1447.7 1384.8 1501C1461.7 1554.3 1538.3 1607.7 1615.2 1667.7C1692 1727.7 1769 1794.3 1846 1747.7C1923 1701 2000 1541 2077 1491C2154 1441 2231 1501 2307.8 1491C2384.7 1481 2461.3 1401 2538.2 1357.7C2615 1314.3 2692 1307.7 2769 1311C2846 1314.3 2923 1327.7 2961.5 1334.3L3000 1341L3000 1279L2961.5 1235.7C2923 1192.3 2846 1105.7 2769 1075.7C2692 1045.7 2615 1072.3 2538.2 1129C2461.3 1185.7 2384.7 1272.3 2307.8 1279C2231 1285.7 2154 1212.3 2077 1275.7C2000 1339 1923 1539 1846 1602.3C1769 1665.7 1692 1592.3 1615.2 1535.7C1538.3 1479 1461.7 1439 1384.8 1362.3C1308 1285.7 1231 1172.3 1154 1159C1077 1145.7 1000 1232.3 923 1279C846 1325.7 769 1332.3 692.2 1335.7C615.3 1339 538.7 1339 461.8 1325.7C385 1312.3 308 1285.7 231 1245.7C154 1205.7 77 1152.3 38.5 1125.7L0 1099Z" fill="#0055d1"></path><path d="M0 2001L38.5 2001C77 2001 154 2001 231 2001C308 2001 385 2001 461.8 2001C538.7 2001 615.3 2001 692.2 2001C769 2001 846 2001 923 2001C1000 2001 1077 2001 1154 2001C1231 2001 1308 2001 1384.8 2001C1461.7 2001 1538.3 2001 1615.2 2001C1692 2001 1769 2001 1846 2001C1923 2001 2000 2001 2077 2001C2154 2001 2231 2001 2307.8 2001C2384.7 2001 2461.3 2001 2538.2 2001C2615 2001 2692 2001 2769 2001C2846 2001 2923 2001 2961.5 2001L3000 2001L3000 1339L2961.5 1332.3C2923 1325.7 2846 1312.3 2769 1309C2692 1305.7 2615 1312.3 2538.2 1355.7C2461.3 1399 2384.7 1479 2307.8 1489C2231 1499 2154 1439 2077 1489C2000 1539 1923 1699 1846 1745.7C1769 1792.3 1692 1725.7 1615.2 1665.7C1538.3 1605.7 1461.7 1552.3 1384.8 1499C1308 1445.7 1231 1392.3 1154 1382.3C1077 1372.3 1000 1405.7 923 1452.3C846 1499 769 1559 692.2 1585.7C615.3 1612.3 538.7 1605.7 461.8 1579C385 1552.3 308 1505.7 231 1469C154 1432.3 77 1405.7 38.5 1392.3L0 1379Z" fill="#004cbb"></path></svg>