<svg id="visual" viewBox="0 0 2560 300" width="2560" height="300" xmlns="http://www.w3.org/2000/svg" xmlns:xlink="http://www.w3.org/1999/xlink" version="1.1"><path d="M0 157L61 162.5C122 168 244 179 365.8 177.3C487.7 175.7 609.3 161.3 731.2 160.7C853 160 975 173 1097 174.7C1219 176.3 1341 166.7 1463 162C1585 157.3 1707 157.7 1828.8 157.7C1950.7 157.7 2072.3 157.3 2194.2 157.7C2316 158 2438 159 2499 159.5L2560 160L2560 301L2499 301C2438 301 2316 301 2194.2 301C2072.3 301 1950.7 301 1828.8 301C1707 301 1585 301 1463 301C1341 301 1219 301 1097 301C975 301 853 301 731.2 301C609.3 301 487.7 301 365.8 301C244 301 122 301 61 301L0 301Z" fill="#3476b0"></path><path d="M0 167L61 173.7C122 180.3 244 193.7 365.8 195.2C487.7 196.7 609.3 186.3 731.2 184C853 181.7 975 187.3 1097 185.3C1219 183.3 1341 173.7 1463 169.5C1585 165.3 1707 166.7 1828.8 169C1950.7 171.3 2072.3 174.7 2194.2 177.7C2316 180.7 2438 183.3 2499 184.7L2560 186L2560 301L2499 301C2438 301 2316 301 2194.2 301C2072.3 301 1950.7 301 1828.8 301C1707 301 1585 301 1463 301C1341 301 1219 301 1097 301C975 301 853 301 731.2 301C609.3 301 487.7 301 365.8 301C244 301 122 301 61 301L0 301Z" fill="#3f86b7"></path><path d="M0 194L61 195.7C122 197.3 244 200.7 365.8 199.3C487.7 198 609.3 192 731.2 191.5C853 191 975 196 1097 196C1219 196 1341 191 1463 194.5C1585 198 1707 210 1828.8 209.8C1950.7 209.7 2072.3 197.3 2194.2 191C2316 184.7 2438 184.3 2499 184.2L2560 184L2560 301L2499 301C2438 301 2316 301 2194.2 301C2072.3 301 1950.7 301 1828.8 301C1707 301 1585 301 1463 301C1341 301 1219 301 1097 301C975 301 853 301 731.2 301C609.3 301 487.7 301 365.8 301C244 301 122 301 61 301L0 301Z" fill="#4f96be"></path><path d="M0 222L61 220.3C122 218.7 244 215.3 365.8 212C487.7 208.7 609.3 205.3 731.2 207.3C853 209.3 975 216.7 1097 217.8C1219 219 1341 214 1463 215.2C1585 216.3 1707 223.7 1828.8 228.5C1950.7 233.3 2072.3 235.7 2194.2 230.7C2316 225.7 2438 213.3 2499 207.2L2560 201L2560 301L2499 301C2438 301 2316 301 2194.2 301C2072.3 301 1950.7 301 1828.8 301C1707 301 1585 301 1463 301C1341 301 1219 301 1097 301C975 301 853 301 731.2 301C609.3 301 487.7 301 365.8 301C244 301 122 301 61 301L0 301Z" fill="#63a5c3"></path><path d="M0 221L61 223.5C122 226 244 231 365.8 234.5C487.7 238 609.3 240 731.2 239.3C853 238.7 975 235.3 1097 231.3C1219 227.3 1341 222.7 1463 222.3C1585 222 1707 226 1828.8 227.2C1950.7 228.3 2072.3 226.7 2194.2 226.3C2316 226 2438 227 2499 227.5L2560 228L2560 301L2499 301C2438 301 2316 301 2194.2 301C2072.3 301 1950.7 301 1828.8 301C1707 301 1585 301 1463 301C1341 301 1219 301 1097 301C975 301 853 301 731.2 301C609.3 301 487.7 301 365.8 301C244 301 122 301 61 301L0 301Z" fill="#79b4c9"></path><path d="M0 239L61 241.5C122 244 244 249 365.8 251.3C487.7 253.7 609.3 253.3 731.2 252.2C853 251 975 249 1097 249.5C1219 250 1341 253 1463 255.3C1585 257.7 1707 259.3 1828.8 258.5C1950.7 257.7 2072.3 254.3 2194.2 250.8C2316 247.3 2438 243.7 2499 241.8L2560 240L2560 301L2499 301C2438 301 2316 301 2194.2 301C2072.3 301 1950.7 301 1828.8 301C1707 301 1585 301 1463 301C1341 301 1219 301 1097 301C975 301 853 301 731.2 301C609.3 301 487.7 301 365.8 301C244 301 122 301 61 301L0 301Z" fill="#91c3cf"></path><path d="M0 264L61 264.2C122 264.3 244 264.7 365.8 265.5C487.7 266.3 609.3 267.7 731.2 266.7C853 265.7 975 262.3 1097 260.8C1219 259.3 1341 259.7 1463 260.7C1585 261.7 1707 263.3 1828.8 262C1950.7 260.7 2072.3 256.3 2194.2 258.2C2316 260 2438 268 2499 272L2560 276L2560 301L2499 301C2438 301 2316 301 2194.2 301C2072.3 301 1950.7 301 1828.8 301C1707 301 1585 301 1463 301C1341 301 1219 301 1097 301C975 301 853 301 731.2 301C609.3 301 487.7 301 365.8 301C244 301 122 301 61 301L0 301Z" fill="#aad1d7"></path><path d="M0 286L61 285.7C122 285.3 244 284.7 365.8 284.8C487.7 285 609.3 286 731.2 286C853 286 975 285 1097 283.7C1219 282.3 1341 280.7 1463 278.7C1585 276.7 1707 274.3 1828.8 272.7C1950.7 271 2072.3 270 2194.2 270.7C2316 271.3 2438 273.7 2499 274.8L2560 276L2560 301L2499 301C2438 301 2316 301 2194.2 301C2072.3 301 1950.7 301 1828.8 301C1707 301 1585 301 1463 301C1341 301 1219 301 1097 301C975 301 853 301 731.2 301C609.3 301 487.7 301 365.8 301C244 301 122 301 61 301L0 301Z" fill="#c3dfe0"></path></svg>