<svg id="visual" viewBox="0 0 1441 100" width="1441" height="100" xmlns="http://www.w3.org/2000/svg" xmlns:xlink="http://www.w3.org/1999/xlink" version="1.1"><path d="M0 67L34.3 67C68.7 67 137.3 67 206 67C274.7 67 343.3 67 412 65.5C480.7 64 549.3 61 617.8 61.8C686.3 62.7 754.7 67.3 823.2 69.7C891.7 72 960.3 72 1029 71.8C1097.7 71.7 1166.3 71.3 1235 70.2C1303.7 69 1372.3 67 1406.7 66L1441 65L1441 101L1406.7 101C1372.3 101 1303.7 101 1235 101C1166.3 101 1097.7 101 1029 101C960.3 101 891.7 101 823.2 101C754.7 101 686.3 101 617.8 101C549.3 101 480.7 101 412 101C343.3 101 274.7 101 206 101C137.3 101 68.7 101 34.3 101L0 101Z" fill="#4b7eca" stroke-linecap="round" stroke-linejoin="miter"></path></svg>