<svg id="visual" viewBox="0 0 200 600" width="200" height="600" xmlns="http://www.w3.org/2000/svg" xmlns:xlink="http://www.w3.org/1999/xlink" version="1.1"><path d="M66 0L73.3 7.7C80.7 15.3 95.3 30.7 99.2 46C103 61.3 96 76.7 102.7 92C109.3 107.3 129.7 122.7 136.8 138.2C144 153.7 138 169.3 137 184.8C136 200.3 140 215.7 133 231C126 246.3 108 261.7 101.7 277C95.3 292.3 100.7 307.7 105.2 323C109.7 338.3 113.3 353.7 114 369C114.7 384.3 112.3 399.7 116.3 415.2C120.3 430.7 130.7 446.3 130.2 461.8C129.7 477.3 118.3 492.7 109.8 508C101.3 523.3 95.7 538.7 101.3 554C107 569.3 124 584.7 132.5 592.3L141 600L0 600L0 592.3C0 584.7 0 569.3 0 554C0 538.7 0 523.3 0 508C0 492.7 0 477.3 0 461.8C0 446.3 0 430.7 0 415.2C0 399.7 0 384.3 0 369C0 353.7 0 338.3 0 323C0 307.7 0 292.3 0 277C0 261.7 0 246.3 0 231C0 215.7 0 200.3 0 184.8C0 169.3 0 153.7 0 138.2C0 122.7 0 107.3 0 92C0 76.7 0 61.3 0 46C0 30.7 0 15.3 0 7.7L0 0Z" fill="#4d7ea8" stroke-linecap="round" stroke-linejoin="miter"></path></svg>